<svg width="14" height="21" viewBox="0 0 14 21" fill="none" xmlns="http://www.w3.org/2000/svg">
<g filter="url(#filter0_dd_111_383)">
<path d="M12.7561 10.9105L2.33599 1.212C2.18707 1.07327 1.99199 1 1.79393 1C1.6895 1 1.58432 1.02018 1.48473 1.062C1.19583 1.18291 1.00819 1.46018 1.008 1.76727L1 15.826C1 16.1365 1.19118 16.4164 1.48492 16.5353C1.58209 16.5749 1.68428 16.5938 1.78574 16.5938C1.99031 16.5938 2.19117 16.5158 2.34158 16.3693L5.40429 13.3787L8.01316 18.5704C8.14942 18.8416 8.42828 19 8.71904 19C8.82775 19 8.93814 18.9778 9.04331 18.9313L9.84617 18.5755C10.2375 18.402 10.4136 17.954 10.2417 17.5693L7.90241 12.334L12.2328 12.2336C12.5505 12.2262 12.8327 12.0325 12.9472 11.7431C13.0617 11.4531 12.9863 11.1249 12.7561 10.9105ZM12.3361 11.5124C12.3171 11.5607 12.2702 11.5927 12.217 11.5938L7.88677 11.6945C7.6686 11.6995 7.46737 11.8104 7.3501 11.99C7.23283 12.1698 7.21458 12.3947 7.30207 12.59L9.64141 17.8253C9.66989 17.8889 9.64029 17.9644 9.57551 17.9929L8.77265 18.3487C8.75534 18.3565 8.73728 18.3602 8.71885 18.3602C8.67939 18.3602 8.62746 18.3413 8.60065 18.2884L5.99233 13.0969C5.89926 12.9115 5.72018 12.7816 5.51169 12.7476C5.47595 12.742 5.44003 12.7389 5.40429 12.7389C5.2321 12.7389 5.06512 12.8053 4.94133 12.9264L1.87862 15.9167C1.84512 15.9496 1.80603 15.9542 1.78574 15.9542C1.76861 15.9542 1.75204 15.9509 1.73585 15.9444C1.6867 15.9245 1.65487 15.8784 1.65487 15.8265L1.66269 1.76745C1.66269 1.71618 1.69396 1.67018 1.74255 1.65C1.75856 1.64309 1.77587 1.63964 1.79374 1.63964C1.8131 1.63964 1.85107 1.64436 1.88421 1.67491L12.3043 11.3736C12.3428 11.4096 12.3555 11.4642 12.3361 11.5124Z" fill="white"/>
<path d="M12.2171 11.594C12.2704 11.5929 12.3173 11.5609 12.3363 11.5125C12.3556 11.4643 12.343 11.4098 12.3044 11.3738L1.88436 1.67504C1.85123 1.6445 1.81326 1.63977 1.7939 1.63977C1.77603 1.63977 1.75871 1.64323 1.74271 1.65013C1.69412 1.67032 1.66285 1.71632 1.66285 1.76759L1.65503 15.8267C1.65503 15.8785 1.68686 15.9247 1.736 15.9445C1.7522 15.951 1.76877 15.9543 1.78589 15.9543C1.80618 15.9543 1.84527 15.9498 1.87878 15.9169L4.94149 12.9265C5.06528 12.8054 5.23225 12.739 5.40444 12.739C5.44018 12.739 5.47611 12.7421 5.51185 12.7478C5.72034 12.7818 5.89941 12.9116 5.99249 13.097L8.60081 18.2885C8.62761 18.3414 8.67955 18.3603 8.71901 18.3603C8.73744 18.3603 8.7555 18.3567 8.77281 18.3489L9.57567 17.993C9.64045 17.9645 9.67005 17.889 9.64157 17.8254L7.30223 12.5901C7.21474 12.3949 7.23298 12.17 7.35026 11.9901C7.46753 11.8105 7.66876 11.6996 7.88693 11.6947L12.2171 11.594Z" fill="black"/>
</g>
<defs>
<filter id="filter0_dd_111_383" x="0" y="0" width="14" height="21" filterUnits="userSpaceOnUse" color-interpolation-filters="sRGB">
<feFlood flood-opacity="0" result="BackgroundImageFix"/>
<feColorMatrix in="SourceAlpha" type="matrix" values="0 0 0 0 0 0 0 0 0 0 0 0 0 0 0 0 0 0 127 0" result="hardAlpha"/>
<feOffset dy="1"/>
<feGaussianBlur stdDeviation="0.5"/>
<feColorMatrix type="matrix" values="0 0 0 0 0 0 0 0 0 0 0 0 0 0 0 0 0 0 0.25 0"/>
<feBlend mode="normal" in2="BackgroundImageFix" result="effect1_dropShadow_111_383"/>
<feColorMatrix in="SourceAlpha" type="matrix" values="0 0 0 0 0 0 0 0 0 0 0 0 0 0 0 0 0 0 127 0" result="hardAlpha"/>
<feOffset/>
<feGaussianBlur stdDeviation="0.5"/>
<feColorMatrix type="matrix" values="0 0 0 0 0 0 0 0 0 0 0 0 0 0 0 0 0 0 0.25 0"/>
<feBlend mode="normal" in2="effect1_dropShadow_111_383" result="effect2_dropShadow_111_383"/>
<feBlend mode="normal" in="SourceGraphic" in2="effect2_dropShadow_111_383" result="shape"/>
</filter>
</defs>
</svg>
