<svg width="16" height="20" viewBox="0 0 16 20" fill="none" xmlns="http://www.w3.org/2000/svg">
<g filter="url(#filter0_d_111_382)">
<path d="M13.5064 12.8931C13.5064 14.0083 13.1046 15.0918 12.3758 15.9443C12.2912 16.0427 12.2453 16.1681 12.2453 16.2977V16.6237C12.2453 16.783 12.1156 16.9127 11.9563 16.9127H5.59239C5.43336 16.9127 5.30369 16.783 5.30369 16.6237V16.2374C5.30369 16.1129 5.26101 15.9922 5.18272 15.8954L2.51238 12.5941C2.18508 12.1896 2.03937 11.6823 2.10217 11.1658C2.16469 10.6496 2.42757 10.1918 2.84186 9.87729L3.00116 9.75659V11.2504C3.00116 11.5505 3.24474 11.7941 3.54485 11.7941C3.84497 11.7941 4.08854 11.5505 4.08854 11.2504V8.66621C4.08854 8.66241 4.08854 8.65915 4.08854 8.65534V1.79586C4.08854 1.40495 4.40633 1.08716 4.79725 1.08716H4.91876C5.30967 1.08716 5.62746 1.40522 5.62746 1.79586V6.01762L5.63018 9.5296C5.63045 9.82971 5.87375 10.0727 6.17387 10.0727C6.47399 10.0725 6.71756 9.82917 6.71729 9.52851L6.71484 6.01762C6.71484 5.62671 7.03263 5.30892 7.42327 5.30892H7.54479C7.9357 5.30892 8.25349 5.62698 8.25349 6.01762V6.90656L8.25594 9.5296C8.25621 9.82971 8.49951 10.0727 8.79963 10.0727C9.09975 10.0725 9.34359 9.8289 9.34332 9.52851L9.34087 6.90629C9.34087 6.51537 9.65866 6.19758 10.0493 6.19758H10.1708C10.5617 6.19758 10.8795 6.51564 10.8795 6.90629V8.01759C10.8779 8.03553 10.8741 8.05293 10.8741 8.07114L10.8768 9.52987C10.8773 9.82998 11.1206 10.0725 11.4205 10.0725H11.4216C11.7217 10.0719 11.9647 9.82808 11.9642 9.52769L11.9617 8.2087C11.9634 8.19184 11.9669 8.1758 11.9669 8.15868C11.9669 7.76776 12.285 7.44998 12.6756 7.44998H12.7968C13.1878 7.44998 13.5055 7.76804 13.5055 8.15868L13.5064 12.8931Z" fill="white"/>
<path d="M12.7973 6.36282H12.6761C12.4089 6.36282 12.155 6.42154 11.9269 6.52674C11.7518 5.718 11.0312 5.11043 10.171 5.11043H10.0495C9.74289 5.11043 9.45419 5.18763 9.20137 5.32355C8.92953 4.67683 8.28933 4.22149 7.54475 4.22149H7.42323C7.17177 4.22149 6.93201 4.27341 6.7148 4.3672V1.79608C6.7148 0.805479 5.90905 0 4.91844 0H4.79693C3.8066 0 3.00085 0.805751 3.00085 1.79608V8.39133L2.18395 9.01141C1.53315 9.50535 1.12076 10.2241 1.02235 11.035C0.923945 11.8462 1.15257 12.6427 1.66663 13.278L4.216 16.4298V16.6236C4.216 17.3824 4.83336 18 5.59208 18H11.9563C12.715 18 13.3326 17.3826 13.3326 16.6236L13.3329 16.4931C14.1473 15.4694 14.594 14.1993 14.594 12.8934V8.1589C14.5934 7.16857 13.788 6.36282 12.7973 6.36282ZM13.506 12.8931C13.506 14.0082 13.1043 15.0918 12.3754 15.9443C12.2909 16.0427 12.245 16.168 12.245 16.2977V16.6236C12.245 16.7829 12.1153 16.9126 11.956 16.9126H5.59208C5.43305 16.9126 5.30338 16.7829 5.30338 16.6236V16.2373C5.30338 16.1128 5.2607 15.9921 5.18241 15.8954L2.51207 12.5941C2.18476 12.1896 2.03906 11.6823 2.10185 11.1658C2.16438 10.6496 2.42725 10.1918 2.84154 9.87724L3.00085 9.75654V11.2503C3.00085 11.5504 3.24442 11.794 3.54454 11.794C3.84465 11.794 4.08823 11.5504 4.08823 11.2503V8.66617C4.08823 8.66236 4.08823 8.6591 4.08823 8.65529V1.79581C4.08823 1.4049 4.40602 1.08711 4.79693 1.08711H4.91844C5.30936 1.08711 5.62715 1.40517 5.62715 1.79581V6.01757L5.62986 9.52955C5.63014 9.82967 5.87344 10.0727 6.17356 10.0727C6.47367 10.0724 6.71725 9.82912 6.71698 9.52846L6.71453 6.01757C6.71453 5.62666 7.03232 5.30887 7.42296 5.30887H7.54447C7.93539 5.30887 8.25318 5.62693 8.25318 6.01757L8.25562 9.52955C8.25589 9.82967 8.4992 10.0727 8.79931 10.0727C9.09943 10.0724 9.34328 9.82885 9.343 9.52846L9.34056 6.90624C9.34056 6.51532 9.65835 6.19754 10.049 6.19754H10.1705C10.5614 6.19754 10.8792 6.5156 10.8792 6.90624V8.01754C10.8776 8.03548 10.8738 8.05288 10.8738 8.0711L10.8765 9.52982C10.877 9.82994 11.1203 10.0724 11.4202 10.0724H11.4213C11.7214 10.0719 11.9644 9.82803 11.9639 9.52764L11.9614 8.20865C11.9631 8.1918 11.9666 8.17576 11.9666 8.15863C11.9666 7.76772 12.2846 7.44993 12.6753 7.44993H12.7965C13.1874 7.44993 13.5052 7.76799 13.5052 8.15863L13.506 12.8931Z" fill="black"/>
<path fill-rule="evenodd" clip-rule="evenodd" d="M5.23529 13.2353C4.94291 13.2353 4.70588 12.9983 4.70588 12.7059V12.1765C4.70588 11.8841 4.94291 11.6471 5.23529 11.6471C5.52768 11.6471 5.76471 11.8841 5.76471 12.1765V12.7059C5.76471 12.9983 5.52768 13.2353 5.23529 13.2353Z" fill="black"/>
<path fill-rule="evenodd" clip-rule="evenodd" d="M7.35294 13.2353C7.06056 13.2353 6.82353 12.9983 6.82353 12.7059V12.1765C6.82353 11.8841 7.06056 11.6471 7.35294 11.6471C7.64533 11.6471 7.88235 11.8841 7.88235 12.1765V12.7059C7.88235 12.9983 7.64533 13.2353 7.35294 13.2353Z" fill="black"/>
<path fill-rule="evenodd" clip-rule="evenodd" d="M9.47059 13.2353C9.1782 13.2353 8.94118 12.9983 8.94118 12.7059V12.1765C8.94118 11.8841 9.1782 11.6471 9.47059 11.6471C9.76297 11.6471 10 11.8841 10 12.1765V12.7059C10 12.9983 9.76297 13.2353 9.47059 13.2353Z" fill="black"/>
<path fill-rule="evenodd" clip-rule="evenodd" d="M11.5882 13.2353C11.2958 13.2353 11.0588 12.9983 11.0588 12.7059V12.1765C11.0588 11.8841 11.2958 11.6471 11.5882 11.6471C11.8806 11.6471 12.1176 11.8841 12.1176 12.1765V12.7059C12.1176 12.9983 11.8806 13.2353 11.5882 13.2353Z" fill="black"/>
</g>
<defs>
<filter id="filter0_d_111_382" x="0" y="0" width="15.7646" height="20" filterUnits="userSpaceOnUse" color-interpolation-filters="sRGB">
<feFlood flood-opacity="0" result="BackgroundImageFix"/>
<feColorMatrix in="SourceAlpha" type="matrix" values="0 0 0 0 0 0 0 0 0 0 0 0 0 0 0 0 0 0 127 0" result="hardAlpha"/>
<feOffset dy="1"/>
<feGaussianBlur stdDeviation="0.5"/>
<feColorMatrix type="matrix" values="0 0 0 0 0 0 0 0 0 0 0 0 0 0 0 0 0 0 0.25 0"/>
<feBlend mode="normal" in2="BackgroundImageFix" result="effect1_dropShadow_111_382"/>
<feBlend mode="normal" in="SourceGraphic" in2="effect1_dropShadow_111_382" result="shape"/>
</filter>
</defs>
</svg>
