<svg width="16" height="16" viewBox="0 0 16 16" fill="none" xmlns="http://www.w3.org/2000/svg">
<path d="M1.5 8C1.5 7.44772 1.94772 7 2.5 7H3.5C4.05228 7 4.5 7.44772 4.5 8V14C4.5 14.5523 4.05228 15 3.5 15H2.5C1.94772 15 1.5 14.5523 1.5 14V8Z" fill="#868FA0"/>
<path d="M6.5 2C6.5 1.44772 6.94772 1 7.5 1H8.5C9.05228 1 9.5 1.44772 9.5 2V14C9.5 14.5523 9.05228 15 8.5 15H7.5C6.94772 15 6.5 14.5523 6.5 14V2Z" fill="#868FA0"/>
<path d="M11.5 6C11.5 5.44772 11.9477 5 12.5 5H13.5C14.0523 5 14.5 5.44772 14.5 6V14C14.5 14.5523 14.0523 15 13.5 15H12.5C11.9477 15 11.5 14.5523 11.5 14V6Z" fill="#868FA0"/>
</svg>
