<svg width="16" height="16" viewBox="0 0 16 16" fill="none" xmlns="http://www.w3.org/2000/svg">
<path d="M7.51706 15H8.50394L8.50919 13.7695C10.7297 13.6 12 12.2766 12 10.5047C12 8.48672 10.273 7.70469 8.90814 7.35469L8.52493 7.25078L8.53543 3.73984C9.51706 3.87656 10.189 4.44531 10.2887 5.34219H11.853C11.811 3.67422 10.4882 2.42734 8.54068 2.26328L8.54593 1H7.55906L7.55381 2.27422C5.66929 2.47109 4.28871 3.69609 4.28871 5.4625C4.28871 7.02109 5.35958 7.93437 7.08661 8.42109L7.53806 8.54688L7.52756 12.2711C6.50394 12.1398 5.71129 11.5602 5.6273 10.5047H4C4.09974 12.3914 5.40682 13.6055 7.52231 13.7695L7.51706 15ZM8.51444 12.2711L8.52493 8.83125C9.59055 9.1375 10.3937 9.54219 10.3937 10.4883C10.3937 11.4453 9.6273 12.118 8.51444 12.2711ZM7.54331 6.97734C6.76115 6.73672 5.90026 6.30469 5.90551 5.36406C5.90551 4.54375 6.53018 3.90391 7.54856 3.74531L7.54331 6.97734Z" fill="#868FA0"/>
</svg>
