<svg width="16" height="16" viewBox="0 0 16 16" fill="none" xmlns="http://www.w3.org/2000/svg">
<path fill-rule="evenodd" clip-rule="evenodd" d="M14 8C14 11.3137 11.3137 14 8 14C4.68629 14 2 11.3137 2 8C2 4.68629 4.68629 2 8 2C11.3137 2 14 4.68629 14 8ZM7.25 8.5C7.25 8.91421 7.58579 9.25 8 9.25C8.41421 9.25 8.75 8.91421 8.75 8.5V5C8.75 4.58579 8.41421 4.25 8 4.25C7.58579 4.25 7.25 4.58579 7.25 5V8.5ZM7.25 11C7.25 11.4142 7.58579 11.75 8 11.75C8.41421 11.75 8.75 11.4142 8.75 11C8.75 10.5858 8.41421 10.25 8 10.25C7.58579 10.25 7.25 10.5858 7.25 11Z" fill="#868FA0"/>
</svg>
