<svg width="16" height="16" viewBox="0 0 16 16" fill="none" xmlns="http://www.w3.org/2000/svg">
<path d="M8 1.75C8 1.33579 8.33579 1 8.75 1L14.2498 1.00001C14.664 1.00001 14.9998 1.3358 14.9998 1.75V7.25307C14.9998 7.66728 14.6641 8.00307 14.2498 8.00308C13.8356 8.00309 13.4998 7.6673 13.4998 7.25309L13.4998 3.56083L8.53033 8.53035C8.23744 8.82324 7.76256 8.82324 7.46967 8.53035C7.17678 8.23745 7.17678 7.76258 7.46967 7.46969L12.4393 2.50001L8.75 2.5C8.33579 2.5 8 2.16421 8 1.75Z" fill="#868FA0"/>
<path d="M6.25 2.50002C6.66421 2.50002 7 2.8358 7 3.25002C7 3.66423 6.66421 4.00002 6.25 4.00002H3C2.72386 4.00002 2.5 4.22387 2.5 4.50002V13C2.5 13.2762 2.72386 13.5 3 13.5H11.5C11.7761 13.5 12 13.2762 12 13V9.75002C12 9.3358 12.3358 9.00002 12.75 9.00002C13.1642 9.00002 13.5 9.3358 13.5 9.75002V13C13.5 14.1046 12.6046 15 11.5 15H3C1.89543 15 1 14.1046 1 13V4.50002C1 3.39545 1.89543 2.50002 3 2.50002H6.25Z" fill="#868FA0"/>
</svg>
