<svg width="16" height="16" viewBox="0 0 16 16" fill="none" xmlns="http://www.w3.org/2000/svg">
<path fill-rule="evenodd" clip-rule="evenodd" d="M8.0022 14C11.3159 14 14.0022 11.3137 14.0022 8C14.0022 4.68629 11.3159 2 8.0022 2C4.68849 2 2.0022 4.68629 2.0022 8C2.0022 11.3137 4.68849 14 8.0022 14ZM9.94379 5.91404C10.1707 5.67328 10.5912 5.71853 10.8244 5.91404C11.0849 6.13238 11.0367 6.49289 10.8244 6.71814L7.65234 10.0843C7.44861 10.3005 6.97439 10.31 6.77167 10.0843L5.17782 8.30949C4.95656 8.06311 4.9311 7.75078 5.17782 7.50538C5.39002 7.29432 5.85106 7.27441 6.05848 7.50538L7.22261 8.80165L9.94379 5.91404Z" fill="#868FA0"/>
</svg>
