<svg width="16" height="16" viewBox="0 0 16 16" fill="none" xmlns="http://www.w3.org/2000/svg">
<path d="M13.1834 5.88123C12.7833 6.28127 12.5833 6.4813 12.3347 6.4813C12.0862 6.4813 11.8861 6.28127 11.4861 5.88123L10.1212 4.51635C9.72117 4.1163 9.52114 3.91628 9.52114 3.66772C9.52114 3.41916 9.72117 3.21914 10.1212 2.81909L10.3378 2.60251C10.7378 2.20247 10.9379 2.00244 11.1864 2.00244C11.435 2.00244 11.635 2.20247 12.0351 2.60251L13.3999 3.96739C13.8 4.36744 14 4.56746 14 4.81602C14 5.06458 13.8 5.2646 13.3999 5.66465L13.1834 5.88123Z" fill="#868FA0"/>
<path d="M3.20014 14.0024C2.63439 14.0024 2.35151 14.0024 2.17576 13.8267C2 13.6509 2 13.368 2 12.8023V11.4374C2 11.1921 2 11.0695 2.04568 10.9592C2.09136 10.8489 2.17808 10.7622 2.35151 10.5888L7.65841 5.28188C8.05846 4.88184 8.25848 4.68181 8.50704 4.68181C8.7556 4.68181 8.95562 4.88184 9.35567 5.28188L10.7205 6.64676C11.1206 7.04681 11.3206 7.24683 11.3206 7.49539C11.3206 7.74395 11.1206 7.94397 10.7205 8.34402L5.41365 13.6509C5.24021 13.8244 5.15349 13.9111 5.04322 13.9568C4.93294 14.0024 4.8103 14.0024 4.56502 14.0024H3.20014Z" fill="#868FA0"/>
</svg>
