<svg xmlns="http://www.w3.org/2000/svg" width="24" height="24" fill="none">
    <path fill="#868FA0" fill-rule="evenodd" d="M2 12C2 6.48 6.48 2 12 2s10 4.48 10 10-4.48 10-10 10S2 17.52 2 12Zm10 4c.5523 0 1 .4477 1 1s-.4477 1-1 1-1-.4477-1-1 .4477-1 1-1Zm0 4c-4.41 0-8-3.59-8-8s3.59-8 8-8 8 3.59 8 8-3.59 8-8 8ZM9 10c-.55228 0-1.01284-.45466-.87669-.9899C8.56356 7.27927 10.1317 6 12 6c2.21 0 4 1.79 4 4 0 1.2829-.79 1.9733-1.5592 2.6455-.4831.4222-.9579.8371-1.2238 1.3871-.2403.4973-.6647.9674-1.217.9674-.5523 0-1.02-.4554-.8899-.9921.2722-1.1222 1.0022-1.6817 1.6603-2.1862C13.4202 11.3236 14 10.8792 14 10c0-1.1-.9-2-2-2-.7534 0-1.4129.42215-1.7538 1.04157C9.97995 9.52543 9.55228 10 9 10Z" clip-rule="evenodd"/>
    </svg>